# xmcd
#
# Track frame offsets: 
#        150
#        32942
#        53665
#        84960
#        108462
#        144845
#        167380
#        206145
#        253867
#        284027
#
# Disc length: 4107 seconds
#
# Revision: 3
# Processed by: cddbd v1.5.2PL0 Copyright (c) Steve Scherf et al.
# Submitted via: ExactAudioCopy v0.95b4
#
DISCID=8b10090a
DTITLE=Virtual Audio Project - Cosmos (issue 22)
DYEAR=2000
DGENRE=New Age
TTITLE0=Virtualmind - Jake's Experience
TTITLE1=Ahria - Poseidon
TTITLE2=Direct 2 Brain - Deep Space
TTITLE3=Direct 2 Brain - Nova
TTITLE4=U.P.I. - Signals
TTITLE5=The Voyager - Secret Files
TTITLE6=Realogic - Exploration Mode
TTITLE7=The Sonic Theater - My Distant Planet
TTITLE8=R.Deelay - A UFO Appears
TTITLE9=J.L.A. - Extreme Gravity
EXTD=
EXTT0=
EXTT1=
EXTT2=
EXTT3=
EXTT4=
EXTT5=
EXTT6=
EXTT7=
EXTT8=
EXTT9=
PLAYORDER=
